<svg width="230" height="122" viewBox="0 0 230 122" fill="none" xmlns="http://www.w3.org/2000/svg">
<g clip-path="url(#clip0_869_36918)">
<path d="M168.407 22.7463C163.193 26.7102 160.021 32.3512 155.966 37.6263C154.716 31.0401 154.716 24.6978 158.71 19.0263C161.255 15.229 164.547 11.9895 168.384 9.50475C172.221 7.02002 176.524 5.34213 181.03 4.57318C187.067 3.80488 193.012 2.43614 198.776 0.487285C202.131 -0.854356 203.808 0.731231 202.557 4.02435C200.77 9.83326 199.745 15.8499 199.508 21.923C198.802 27.3673 196.303 32.4212 192.405 36.2864C188.506 40.1517 183.431 42.608 177.981 43.2673C171.425 44.2736 168.468 47.5972 165.784 53.3601C157.003 73.1493 152.795 94.1887 148.191 115.106C147.428 118.613 146.94 121.204 142.458 121.204C137.976 121.204 137.305 118.155 136.634 115.106C132.823 97.2989 128.523 79.5832 123.126 62.1723C117.338 41.8857 106.98 23.1941 92.8477 7.53089C92.2553 6.68147 91.7352 5.78389 91.2927 4.8476C96.5631 6.01492 101.338 8.79691 104.953 12.806C116.321 23.512 124.913 36.8235 129.987 51.5916C134.927 64.5202 137.244 78.15 142.184 91.231C149.776 67.173 157.43 43.3588 172.95 23.0207C173.682 22.3499 174.322 21.4352 173.987 20.6119C173.651 19.7886 172.645 20.2765 172.005 20.6119C170.73 21.1879 169.523 21.9037 168.407 22.7463Z" fill="#FEFFE0"/>
<path d="M29.2717 82.967C29.2717 90.3765 29.2717 97.7861 29.2717 105.196C29.2717 107.909 29.4242 110.928 25.5517 110.989C21.6793 111.05 21.3744 107.94 21.3744 104.891C21.3744 89.8582 21.1914 74.8257 21.3744 59.8237C21.3744 55.4024 20.0326 54.1522 15.8552 54.4571C7.86638 54.4571 7.86641 54.4571 3.87197 54.4571C1.73754 54.4571 -0.0919289 53.6338 -0.0919289 51.4079C-0.151007 50.8807 -0.0937815 50.347 0.075754 49.8443C0.245289 49.3417 0.523019 48.8823 0.889323 48.4985C1.25563 48.1148 1.70162 47.816 2.19589 47.6232C2.69016 47.4305 3.22069 47.3486 3.75007 47.3831C17.9796 47.3831 32.2091 47.3831 46.4387 47.3831C46.9682 47.3192 47.5053 47.3728 48.0118 47.5402C48.5183 47.7075 48.9817 47.9844 49.3689 48.3513C49.7562 48.7182 50.0577 49.1659 50.2522 49.6626C50.4467 50.1593 50.5293 50.6927 50.494 51.225C50.494 53.9388 48.2986 54.5486 46.0727 54.5791C41.6819 54.5791 37.3215 54.7316 32.9307 54.5791C29.8815 54.5791 28.9668 55.5244 29.0278 58.4821C29.3937 66.6234 29.2717 74.7952 29.2717 82.967Z" fill="#FEFFE0"/>
<path d="M59.0618 71.5646C60.713 69.13 63.0247 67.217 65.7252 66.0503C68.4258 64.8837 71.4031 64.5118 74.3077 64.9784C76.5336 65.2528 78.4546 66.0456 78.2106 68.7898C77.9667 71.5341 76.5336 72.205 74.0027 72.3574C63.0562 72.9063 59.0008 77.2361 58.7568 88.2131C58.7568 94.0981 58.7568 99.983 58.7568 105.868C58.7568 108.521 58.3909 110.991 54.9759 110.991C51.5608 110.991 51.3473 108.399 51.3473 105.959C51.3473 94.586 51.3473 83.2125 51.3473 71.8696C51.3473 69.4607 50.3716 65.9846 54.3965 65.5882C58.4214 65.1918 58.6349 68.302 59.0618 71.5646Z" fill="#FEFFE0"/>
<path d="M172.066 73.7593C172.066 71.198 172.066 68.5757 175.664 68.5147C179.262 68.4537 179.78 71.076 179.78 73.9423V109.191C179.78 111.996 178.927 114.192 175.725 114.192C172.523 114.192 172.005 111.661 172.005 109.008C172.005 103.123 172.005 97.2685 172.005 91.3836" fill="#FEFFE0"/>
<path d="M170.633 55.1896C170.571 54.4837 170.673 53.773 170.929 53.1124C171.185 52.4518 171.589 51.8587 172.11 51.3787C172.632 50.8987 173.256 50.5447 173.935 50.3437C174.615 50.1427 175.331 50.1002 176.03 50.2194C176.718 50.2514 177.394 50.4187 178.018 50.7119C178.642 51.0051 179.202 51.4183 179.667 51.9279C180.131 52.4376 180.491 53.0337 180.725 53.6823C180.958 54.3308 181.062 55.0191 181.03 55.7079C180.998 56.3966 180.831 57.0723 180.538 57.6963C180.245 58.3204 179.831 58.8806 179.322 59.345C178.812 59.8093 178.216 60.1687 177.567 60.4027C176.919 60.6367 176.231 60.7406 175.542 60.7086C174.832 60.7522 174.121 60.6338 173.463 60.3625C172.806 60.0912 172.218 59.6741 171.745 59.1426C171.273 58.611 170.927 57.979 170.734 57.2942C170.541 56.6094 170.507 55.8897 170.633 55.1896Z" fill="#FEFFE0"/>
<path d="M120.564 104.618C120.564 96.8118 120.412 89.006 120.381 81.2305C120.381 72.3574 117.698 67.4787 111.722 65.5577C102.574 62.5085 92.2068 65.2528 87.877 71.656C86.5048 73.6685 84.8278 75.8944 87.877 77.9679C90.9262 80.0413 92.3593 78.5472 93.9754 76.2298C95.5151 73.9486 97.781 72.2552 100.405 71.4248C103.029 70.5944 105.857 70.6759 108.428 71.656C112.667 72.9367 113.277 76.3213 113.094 79.7364C112.911 83.1515 109.862 81.9928 107.666 82.1147C101.946 82.112 96.2982 83.3937 91.1395 85.8653C88.3495 87.3564 86.1326 89.7307 84.836 92.6163C83.5394 95.502 83.2363 98.7362 83.974 101.813C84.5216 104.546 85.9755 107.014 88.1005 108.818C90.2255 110.622 92.8971 111.656 95.6829 111.753C98.814 112.05 101.973 111.7 104.963 110.724C107.953 109.749 110.71 108.168 113.063 106.081C113.734 109.344 114.984 111.966 118.613 110.899C122.241 109.832 120.564 106.844 120.564 104.618ZM113.338 93.0309C113.149 94.9525 112.561 96.8133 111.609 98.4933C110.657 100.173 109.364 101.635 107.812 102.784C106.261 103.934 104.486 104.745 102.601 105.166C100.717 105.586 98.7651 105.608 96.872 105.228C95.3721 105.019 93.9907 104.298 92.9624 103.186C91.9341 102.074 91.3222 100.641 91.231 99.1292C90.9583 97.4232 91.271 95.6749 92.118 94.1691C92.965 92.6632 94.2967 91.4884 95.8963 90.8354C100.017 89.0641 104.433 88.0815 108.916 87.9387C112.88 87.6643 113.734 89.0974 113.338 93.0309Z" fill="#FEFFE0"/>
<path d="M208.991 67.7219C196.093 67.8744 188.226 77.1744 188.439 92.1154C188.683 106.294 197.16 115.564 209.783 115.289C222.407 115.015 230.091 105.379 230.121 91.1092C230.152 76.839 221.736 67.5999 208.991 67.7219ZM207.557 108.642C206.985 108.603 206.415 108.532 205.85 108.429C199.294 106.904 195.422 99.4639 195.94 89.3406C196.397 80.6199 200.819 74.8875 207.679 74.0947C216.827 73.058 222.498 79.8577 222.376 91.3531C222.255 102.849 216.766 109.465 207.557 108.642Z" fill="#FEFFE0"/>
</g>
<defs>
<clipPath id="clip0_869_36918">
<rect width="230" height="121.083" fill="white"/>
</clipPath>
</defs>
</svg>
