<svg width="80" height="80" viewBox="0 0 80 80" fill="none" xmlns="http://www.w3.org/2000/svg">
<g clip-path="url(#clip0_869_36848)">
<path d="M76.5443 13.7662C76.4605 11.856 76.4866 9.9426 76.6226 8.0354C75.1254 8.82273 73.6737 9.69373 72.2744 10.6443C69.6656 12.3835 66.0566 14.9924 64.3522 17.4273C61.6041 21.3146 62.7173 24.8887 65.4827 26.2106C66.5871 20.8189 69.4221 18.9753 73.1441 14.6272C71.5005 18.8796 68.3263 22.4538 68.3698 26.741C72.1614 26.1584 75.9182 24.2452 76.7443 21.5233C77.1965 19.7666 76.6313 16.7316 76.5443 13.7662Z" fill="#0C3122"/>
<path d="M38.2982 6.53088C38.382 4.62068 38.3558 2.70724 38.2199 0.800049C39.7177 1.58625 41.1695 2.45729 42.568 3.40892C45.1769 5.14817 48.7945 7.75705 50.4903 10.192C53.2383 14.0792 52.1339 17.6534 49.3598 18.9752C48.2641 13.5835 45.4204 11.7399 41.7071 7.3918C43.342 11.6443 46.5161 15.2184 46.4726 19.5057C42.6898 18.923 38.933 17.0099 38.1068 14.2879C37.6372 12.5313 38.2112 9.49629 38.2982 6.53088Z" fill="#0C3122"/>
<path d="M57.8302 43.7855V35.4284L37.194 43.7855V35.4284L17.81 43.255L15.7751 13.6877H6.13966L1.60022 79.5357H78.4576V35.4284L57.8302 43.7855ZM29.4282 72.9005H22.2364V65.7348H29.4282V72.9005ZM29.4282 59.8561H22.2364V52.7078H29.4282V59.8561ZM49.6209 72.9005H42.4726V65.7348H49.6383L49.6209 72.9005ZM49.6209 59.8561H42.4726V52.7078H49.6383L49.6209 59.8561ZM62.6653 52.6904H69.831V59.8561H62.6218L62.6653 52.6904ZM70.1614 72.8831H62.9522V65.7348H70.1179L70.1614 72.8831Z" fill="#0C3122"/>
<path d="M51.8819 22.4451H41.4812L40.429 39.9854L52.6385 35.0372L51.8819 22.4451Z" fill="#0C3122"/>
<path d="M72.5615 29.2803H62.1608L61.5347 39.794L72.9181 35.1763L72.5615 29.2803Z" fill="#0C3122"/>
</g>
<defs>
<clipPath id="clip0_869_36848">
<rect width="76.8574" height="78.7358" fill="white" transform="translate(1.59998 0.800049)"/>
</clipPath>
</defs>
</svg>
