<svg width="80" height="81" viewBox="0 0 80 81" fill="none" xmlns="http://www.w3.org/2000/svg">
<path d="M30.4817 73.7048H49.9659C50.315 73.454 50.5994 73.1237 50.7956 72.7412C50.9918 72.3587 51.0941 71.935 51.0941 71.5051C51.0941 71.0753 50.9918 70.6516 50.7956 70.2691C50.5994 69.8866 50.315 69.5562 49.9659 69.3054H30.513C30.1638 69.5562 29.8794 69.8866 29.6833 70.2691C29.4871 70.6516 29.3848 71.0753 29.3848 71.5051C29.3848 71.935 29.4871 72.3587 29.6833 72.7412C29.8794 73.1237 30.1638 73.454 30.513 73.7048H30.4817Z" fill="#0C3122"/>
<path d="M40.8228 45.1871L40.9558 49.0463C45.2691 48.5453 48.6665 43.6606 48.6665 37.719C48.6665 32.4272 42.451 23.3309 40.22 20.2388C37.9968 23.3309 31.7812 32.435 31.7812 37.6955C31.7812 43.6371 35.1787 48.5218 39.492 49.0228L39.6329 44.9992L35.6092 40.4589L39.6955 43.5901L39.8521 39.1124L35.5309 34.3373L39.899 37.7503L40.1182 31.2921C40.1182 31.276 40.1215 31.2601 40.1278 31.2453C40.1342 31.2305 40.1436 31.2172 40.1553 31.2062C40.1671 31.1952 40.181 31.1867 40.1961 31.1813C40.2113 31.1758 40.2274 31.1736 40.2435 31.1747C40.2746 31.1747 40.3045 31.1871 40.3265 31.2091C40.3485 31.2311 40.3609 31.261 40.3609 31.2921L40.5644 37.6955L44.776 34.2981L40.6114 39.0733L40.768 43.6371L44.8229 40.3884C44.8315 40.3807 44.8427 40.3764 44.8542 40.3764C44.8658 40.3764 44.8769 40.3807 44.8856 40.3884C44.8933 40.397 44.8975 40.4082 44.8975 40.4197C44.8975 40.4313 44.8933 40.4424 44.8856 40.451L40.8228 45.1871Z" fill="#0C3122"/>
<path d="M29.3465 64.8043C29.3483 65.2309 29.4497 65.6513 29.6427 66.0318C29.8357 66.4124 30.1149 66.7426 30.4581 66.9961H49.9658C50.309 66.7426 50.5882 66.4124 50.7812 66.0318C50.9741 65.6513 51.0756 65.2309 51.0774 64.8043C51.0827 64.332 50.964 63.8666 50.7332 63.4545C50.5025 63.0424 50.1677 62.6981 49.7623 62.4558H40.5251H40.2667C40.1523 62.4685 40.0368 62.4685 39.9223 62.4558H30.6851C30.2753 62.6951 29.9358 63.0382 29.7008 63.4505C29.4658 63.8628 29.3436 64.3297 29.3465 64.8043Z" fill="#0C3122"/>
<path d="M40.2196 5.6001C34.018 5.89582 28.1656 8.55727 23.8666 13.0368C19.0915 18.0782 17.3301 25.5619 19.0367 33.5074C20.0622 38.2748 22.5437 41.9383 25.1739 45.8211C26.1446 47.2615 27.1623 48.7566 28.1017 50.3223C28.9777 52.0143 29.4215 53.8968 29.3933 55.802C29.3787 57.0839 29.6099 58.3567 30.0744 59.5516C30.1854 59.7881 30.3305 60.007 30.5049 60.2014H39.1159L39.4212 51.0033C34.0432 50.5023 29.8082 44.7408 29.8082 37.6955C29.8082 30.6502 39.0454 18.4617 39.4368 17.9529C39.5289 17.8328 39.6474 17.7354 39.7832 17.6685C39.9189 17.6015 40.0682 17.5666 40.2196 17.5666C40.371 17.5666 40.5203 17.6015 40.6561 17.6685C40.7918 17.7354 40.9103 17.8328 41.0024 17.9529C41.4017 18.4852 50.6389 30.6502 50.6389 37.6955C50.6389 44.7408 46.396 50.5023 41.0259 51.0033L41.339 60.1544H49.95C50.1244 59.96 50.2695 59.7411 50.3806 59.5047C50.8417 58.3088 51.0727 57.0366 51.0616 55.755C51.0334 53.8498 51.4772 51.9673 52.3532 50.2753C53.2926 48.7097 54.3103 47.2145 55.281 45.7741C57.9112 41.8601 60.3927 38.2278 61.4182 33.4605C63.1248 25.4914 61.3634 18.0312 56.5883 12.9899C52.2779 8.52397 46.4201 5.87943 40.2196 5.6001V5.6001Z" fill="#0C3122"/>
<path d="M50.0201 75.9985H30.5907C30.2373 76.2481 29.949 76.5788 29.7501 76.963C29.5512 77.3472 29.4475 77.7735 29.4478 78.2061C29.4496 78.6327 29.551 79.0531 29.744 79.4336C29.937 79.8142 30.2162 80.1444 30.5594 80.398H50.0436C50.3942 80.1482 50.6801 79.8182 50.8773 79.4356C51.0745 79.053 51.1774 78.6287 51.1774 78.1982C51.1774 77.7678 51.0745 77.3435 50.8773 76.9609C50.6801 76.5782 50.3942 76.2483 50.0436 75.9985H50.0201Z" fill="#0C3122"/>
</svg>
