<svg width="80" height="80" viewBox="0 0 80 80" fill="none" xmlns="http://www.w3.org/2000/svg">
<path d="M16.8003 25.0645V77.8415H63.5596V25.0645H16.8003ZM30.6348 59.0263C31.2133 60.0352 32.7089 60.6137 34.7266 60.6137V65.799C30.797 65.799 27.6718 64.2681 26.1268 61.6084C24.5818 58.9487 24.8357 55.4707 26.797 52.0632L27.8129 50.3136L25.0826 48.7404L32.9417 46.8779L35.2416 54.6382L32.3209 52.9451L31.312 54.6876C30.2962 56.4372 30.0492 58.0387 30.6348 59.0263ZM36.7795 45.206L32.2715 42.6027C34.2398 39.2023 37.1323 37.2481 40.2011 37.2481C43.27 37.2481 46.1624 39.2023 48.1307 42.6027L49.45 44.8955L52.6811 43.3082L49.8592 50.878L42.1553 48.4935L44.7726 47.2025L43.6086 45.206C42.5998 43.4564 41.3511 42.4546 40.187 42.4546C39.023 42.4546 37.7954 43.4564 36.7795 45.206ZM54.2755 61.6296C52.7799 64.2892 49.6052 65.799 45.6757 65.799H44.3141V69.0653L38.769 63.1957L44.3141 57.3332V60.5996H45.725C47.7427 60.5996 49.2524 60.0211 49.8168 59.0122C50.3812 58.0034 50.1555 56.4231 49.1466 54.6735L53.6546 52.0703C55.6018 55.4919 55.8134 58.9699 54.2755 61.6296Z" fill="#0C3122"/>
<path d="M57.4639 13.1206C57.4582 10.8641 56.7909 8.65889 55.5444 6.77795C54.298 4.89701 52.5272 3.42296 50.4514 2.53833V22.6798H57.4639V13.1206Z" fill="#0C3122"/>
<path d="M29.9085 9.4167V2.51709C27.8327 3.40172 26.0619 4.87577 24.8155 6.75671C23.569 8.63765 22.9017 10.8429 22.896 13.0993V22.6798H29.9085V9.4167Z" fill="#0C3122"/>
<path d="M48.0674 1.79763C47.3694 1.66777 46.661 1.60165 45.9509 1.6001L34.4375 1.6001C33.7275 1.60207 33.0191 1.66819 32.321 1.79763V7.94943H48.0674V1.79763Z" fill="#0C3122"/>
</svg>
