<svg width="80" height="80" viewBox="0 0 80 80" fill="none" xmlns="http://www.w3.org/2000/svg">
<path d="M40.0039 1.6001C40.0039 1.6001 27.4009 19.8391 27.4009 26.7987C27.4102 29.73 28.4381 32.5669 30.3085 34.8239C32.179 37.0809 34.7757 38.6177 37.6543 39.1712L38.0335 34.1448L30.3899 26.2484L38.2491 31.6614L38.5986 27.1481L32.6503 21.7203L38.777 25.0365L39.1191 20.7239L34.115 17.0062L39.238 19.1625L39.9816 9.2883L40.7251 19.1179L45.5804 16.8278L40.8441 20.6942L41.1861 25.0067L46.956 21.9359L41.3943 27.1407L41.7512 31.6763L49.603 26.2633L41.952 34.1448L42.346 39.1712C45.2246 38.6177 47.8214 37.0809 49.6918 34.8239C51.5622 32.5669 52.5901 29.73 52.5994 26.7987C52.5994 19.8391 40.0039 1.6001 40.0039 1.6001Z" fill="#0C3122"/>
<path d="M37.3418 78.6085V48.2051L25.7872 40.5244C25.7872 40.5244 20.6642 44.4651 22.8948 49.4469L27.1628 52.6515L26.8282 58.6519L15.6751 50.6737L10.277 21.3485C7.74367 19.5638 4.69686 18.6553 1.59985 18.761L7.79354 59.2244L18.6343 69.4555V78.6085H37.3418Z" fill="#0C3122"/>
<path d="M42.658 78.6087V48.2053L54.2126 40.5246C54.2126 40.5246 59.3356 44.4653 57.1049 49.447L52.837 52.6517L53.179 58.6521L64.3247 50.6739L69.7228 21.3858C72.2561 19.6012 75.3029 18.6926 78.3999 18.7983L72.236 59.2246L61.3729 69.4557V78.6087H42.658Z" fill="#0C3122"/>
</svg>
