<svg width="100" height="53" viewBox="0 0 100 53" fill="none" xmlns="http://www.w3.org/2000/svg">
<g clip-path="url(#clip0_873_5091)">
<path d="M73.2199 9.88987C70.9529 11.6133 69.5741 14.0659 67.8109 16.3595C67.2674 13.4959 67.2674 10.7383 69.0041 8.27248C70.1107 6.6215 71.5418 5.213 73.2101 4.13268C74.8785 3.05236 76.7492 2.32285 78.7084 1.98852C81.333 1.65447 83.9178 1.05937 86.4242 0.212043C87.8825 -0.371279 88.6116 0.318107 88.0681 1.7499C87.2908 4.27551 86.8452 6.89144 86.7424 9.53194C86.4355 11.899 85.3488 14.0963 83.6538 15.7769C81.9588 17.4575 79.7523 18.5254 77.3827 18.8121C74.5324 19.2496 73.2464 20.6946 72.0798 23.2002C68.2617 31.8042 66.4322 40.9518 64.4303 50.0463C64.0989 51.5709 63.8868 52.6978 61.9379 52.6978C59.9891 52.6978 59.6974 51.3721 59.4058 50.0463C57.7486 42.304 55.8793 34.6016 53.5328 27.0316C51.016 18.2114 46.5127 10.0846 40.3682 3.27448C40.1107 2.90517 39.8845 2.51491 39.6921 2.10783C41.9836 2.61536 44.0597 3.82492 45.6314 5.56801C50.5739 10.2228 54.3095 16.0104 56.5157 22.4313C58.6634 28.0524 59.6709 33.9785 61.8186 39.6659C65.1197 29.2058 68.4473 18.8518 75.1952 10.0092C75.5134 9.71752 75.7918 9.31983 75.646 8.96189C75.5002 8.60394 75.0627 8.81606 74.7843 8.96189C74.23 9.2123 73.7054 9.52352 73.2199 9.88987Z" fill="#0C3122"/>
<path d="M12.7271 36.0732C12.7271 39.2947 12.7271 42.5163 12.7271 45.7378C12.7271 46.9177 12.7933 48.2302 11.1097 48.2567C9.42599 48.2832 9.29342 46.931 9.29342 45.6052C9.29342 39.0694 9.21388 32.5335 9.29342 26.0109C9.29342 24.0886 8.71006 23.545 6.89381 23.6776C3.42039 23.6776 3.4204 23.6776 1.68369 23.6776C0.755677 23.6776 -0.0397462 23.3197 -0.0397462 22.3519C-0.0654323 22.1227 -0.0405517 21.8906 0.0331594 21.6721C0.10687 21.4535 0.227622 21.2538 0.386885 21.0869C0.546147 20.9201 0.74006 20.7902 0.954958 20.7064C1.16986 20.6226 1.40052 20.5869 1.63069 20.6019C7.81744 20.6019 14.0042 20.6019 20.1909 20.6019C20.4212 20.5742 20.6547 20.5975 20.8749 20.6702C21.0951 20.743 21.2966 20.8634 21.465 21.0229C21.6333 21.1824 21.7644 21.3771 21.849 21.593C21.9336 21.809 21.9695 22.0409 21.9541 22.2723C21.9541 23.4522 20.9996 23.7174 20.0318 23.7307C18.1228 23.7307 16.227 23.7969 14.3179 23.7307C12.9922 23.7307 12.5945 24.1416 12.621 25.4276C12.7801 28.9673 12.7271 32.5203 12.7271 36.0732Z" fill="#0C3122"/>
<path d="M25.6794 31.1149C26.3973 30.0564 27.4024 29.2246 28.5765 28.7174C29.7507 28.2102 31.0452 28.0485 32.308 28.2513C33.2758 28.3706 34.111 28.7153 34.005 29.9085C33.8989 31.1017 33.2758 31.3933 32.1754 31.4596C27.4161 31.6982 25.6528 33.5808 25.5468 38.3534C25.5468 40.9121 25.5468 43.4707 25.5468 46.0294C25.5468 47.1828 25.3877 48.2566 23.9029 48.2566C22.4181 48.2566 22.3253 47.1298 22.3253 46.0692C22.3253 41.1242 22.3253 36.1792 22.3253 31.2475C22.3253 30.2002 21.901 28.6888 23.651 28.5165C25.401 28.3441 25.4938 29.6964 25.6794 31.1149Z" fill="#0C3122"/>
<path d="M74.8109 32.0695C74.8109 30.9559 74.8109 29.8158 76.3753 29.7893C77.9396 29.7628 78.165 30.9029 78.165 32.1491V47.4745C78.165 48.6942 77.7938 49.6488 76.4018 49.6488C75.0098 49.6488 74.7844 48.5484 74.7844 47.395C74.7844 44.8363 74.7844 42.2909 74.7844 39.7323" fill="#0C3122"/>
<path d="M74.1881 23.9958C74.1614 23.6889 74.2054 23.3799 74.3168 23.0927C74.4282 22.8055 74.6039 22.5476 74.8305 22.3389C75.0572 22.1303 75.3286 21.9763 75.624 21.8889C75.9194 21.8015 76.231 21.783 76.5346 21.8349C76.8341 21.8488 77.1278 21.9216 77.3991 22.049C77.6705 22.1765 77.9141 22.3561 78.1159 22.5777C78.3178 22.7993 78.4741 23.0585 78.5758 23.3405C78.6776 23.6225 78.7227 23.9217 78.7088 24.2212C78.6949 24.5206 78.6221 24.8144 78.4947 25.0857C78.3672 25.357 78.1876 25.6006 77.966 25.8025C77.7444 26.0044 77.4852 26.1607 77.2032 26.2624C76.9212 26.3641 76.622 26.4093 76.3225 26.3954C76.0138 26.4143 75.7048 26.3629 75.4188 26.2449C75.1329 26.127 74.8775 25.9456 74.6719 25.7145C74.4663 25.4834 74.316 25.2086 74.2322 24.9109C74.1483 24.6131 74.1333 24.3002 74.1881 23.9958Z" fill="#0C3122"/>
<path d="M52.4193 45.4859C52.4193 42.092 52.3531 38.6982 52.3398 35.3175C52.3398 31.4597 51.1731 29.3385 48.5747 28.5033C44.5975 27.1775 40.09 28.3707 38.2075 31.1547C37.6109 32.0297 36.8818 32.9975 38.2075 33.899C39.5332 34.8005 40.1563 34.1509 40.859 33.1433C41.5284 32.1515 42.5136 31.4152 43.6545 31.0542C44.7953 30.6932 46.0247 30.7286 47.1429 31.1547C48.9857 31.7115 49.2508 33.1831 49.1713 34.6679C49.0917 36.1527 47.766 35.649 46.8115 35.702C44.3245 35.7008 41.8689 36.2581 39.626 37.3326C38.4129 37.981 37.4491 39.0133 36.8853 40.2679C36.3216 41.5225 36.1898 42.9287 36.5106 44.2662C36.7486 45.4546 37.3808 46.5277 38.3047 47.3121C39.2286 48.0964 40.3902 48.546 41.6014 48.5881C42.9627 48.7173 44.3361 48.5651 45.6361 48.1409C46.9361 47.7167 48.1349 47.0296 49.158 46.1223C49.4497 47.5408 49.9932 48.6809 51.5709 48.2169C53.1485 47.7529 52.4193 46.4537 52.4193 45.4859ZM49.2773 40.4481C49.1955 41.2836 48.9395 42.0927 48.5257 42.8231C48.1119 43.5535 47.5496 44.1891 46.875 44.6887C46.2005 45.1884 45.4286 45.5411 44.6093 45.7241C43.79 45.9071 42.9414 45.9163 42.1184 45.7511C41.4662 45.6604 40.8656 45.3467 40.4185 44.8634C39.9714 44.38 39.7054 43.7568 39.6658 43.0996C39.5472 42.3578 39.6831 41.5977 40.0514 40.943C40.4197 40.2883 40.9987 39.7775 41.6941 39.4936C43.4857 38.7234 45.4059 38.2962 47.355 38.2341C49.0785 38.1148 49.4497 38.7379 49.2773 40.4481Z" fill="#0C3122"/>
<path d="M90.8655 29.4444C85.2577 29.5107 81.8373 33.5541 81.9301 40.0502C82.0361 46.2149 85.7217 50.2451 91.2102 50.1258C96.6987 50.0065 100.04 45.8172 100.053 39.6128C100.066 33.4083 96.4071 29.3913 90.8655 29.4444ZM90.2424 47.2357C89.9934 47.2188 89.7456 47.1878 89.5 47.1429C86.6497 46.48 84.966 43.2452 85.1914 38.8438C85.3903 35.0522 87.3125 32.5598 90.2954 32.2151C94.2726 31.7644 96.7385 34.7208 96.6855 39.7188C96.6324 44.7168 94.2461 47.5937 90.2424 47.2357Z" fill="#0C3122"/>
</g>
<defs>
<clipPath id="clip0_873_5091">
<rect width="100" height="52.6448" fill="white"/>
</clipPath>
</defs>
</svg>
