<svg width="372" height="196" viewBox="0 0 372 196" fill="none" xmlns="http://www.w3.org/2000/svg">
<g clip-path="url(#clip0_869_36900)">
<path d="M272.379 36.7904C263.946 43.2017 258.817 52.3254 252.258 60.8573C250.236 50.2047 250.236 39.9467 256.696 30.7737C260.813 24.6321 266.136 19.3924 272.343 15.3736C278.549 11.3549 285.508 8.64106 292.796 7.39737C302.56 6.15472 312.175 3.94094 321.499 0.78888C326.924 -1.38108 329.636 1.18344 327.614 6.5097C324.723 15.905 323.065 25.6362 322.683 35.4589C321.541 44.2644 317.498 52.4385 311.193 58.6901C304.888 64.9418 296.68 68.9146 287.865 69.981C277.261 71.6084 272.478 76.984 268.138 86.305C253.934 118.312 247.129 152.341 239.682 186.172C238.449 191.844 237.66 196.036 230.41 196.036C223.16 196.036 222.075 191.104 220.99 186.172C214.826 157.371 207.872 128.718 199.143 100.558C189.78 67.7463 173.028 37.5147 150.171 12.1812C149.213 10.8073 148.371 9.35556 147.656 7.84121C156.18 9.72922 163.903 14.2288 169.75 20.7131C188.136 38.0288 202.032 59.5587 210.239 83.4446C218.229 104.355 221.977 126.4 229.966 147.557C242.246 108.646 254.625 70.1289 279.727 37.2342C280.911 36.1493 281.947 34.6699 281.404 33.3383C280.862 32.0067 279.234 32.7958 278.199 33.3383C276.137 34.2698 274.185 35.4276 272.379 36.7904Z" fill="#0C3122"/>
<path d="M47.3442 134.192C47.3442 146.176 47.3442 158.161 47.3442 170.145C47.3442 174.534 47.5908 179.416 41.3275 179.515C35.0642 179.614 34.5711 174.583 34.5711 169.651C34.5711 145.338 34.2752 121.025 34.5711 96.7606C34.5711 89.6096 32.401 87.5875 25.6445 88.0807C12.7234 88.0807 12.7234 88.0807 6.26288 88.0807C2.81067 88.0807 -0.148305 86.7491 -0.148305 83.149C-0.243857 82.2963 -0.151301 81.4331 0.122904 80.62C0.397109 79.807 0.846306 79.064 1.43876 78.4433C2.03122 77.8226 2.75257 77.3394 3.55199 77.0277C4.35142 76.716 5.20949 76.5834 6.06572 76.6392C29.0804 76.6392 52.0952 76.6392 75.1099 76.6392C75.9664 76.5358 76.8351 76.6226 77.6543 76.8933C78.4735 77.1639 79.2229 77.6119 79.8492 78.2052C80.4756 78.7986 80.9633 79.5227 81.2778 80.3261C81.5924 81.1295 81.726 81.9922 81.669 82.8531C81.669 87.2423 78.1181 88.2287 74.5179 88.278C67.4163 88.278 60.3639 88.5246 53.2622 88.278C48.3305 88.278 46.851 89.8068 46.9496 94.5906C47.5414 107.758 47.3442 120.975 47.3442 134.192Z" fill="#0C3122"/>
<path d="M95.5276 115.748C98.1983 111.81 101.937 108.716 106.305 106.829C110.673 104.942 115.488 104.34 120.186 105.095C123.786 105.539 126.893 106.821 126.499 111.26C126.104 115.698 123.786 116.783 119.693 117.03C101.988 117.918 95.4289 124.921 95.0344 142.675C95.0344 152.193 95.0344 161.711 95.0344 171.229C95.0344 175.52 94.4426 179.515 88.9191 179.515C83.3956 179.515 83.0503 175.323 83.0503 171.377C83.0503 152.982 83.0503 134.587 83.0503 116.241C83.0503 112.345 81.4722 106.723 87.9821 106.081C94.4919 105.44 94.8372 110.471 95.5276 115.748Z" fill="#0C3122"/>
<path d="M278.297 119.299C278.297 115.157 278.297 110.915 284.116 110.817C289.936 110.718 290.774 114.959 290.774 119.595V176.606C290.774 181.143 289.394 184.694 284.215 184.694C279.037 184.694 278.198 180.601 278.198 176.31C278.198 166.792 278.198 157.323 278.198 147.805" fill="#0C3122"/>
<path d="M275.98 89.2645C275.88 88.1228 276.044 86.9734 276.458 85.9049C276.873 84.8364 277.527 83.8772 278.37 83.1009C279.213 82.3245 280.222 81.7519 281.321 81.4268C282.42 81.1017 283.579 81.0329 284.709 81.2257C285.823 81.2775 286.915 81.5482 287.925 82.0224C288.934 82.4965 289.84 83.1648 290.591 83.9891C291.342 84.8135 291.924 85.7776 292.302 86.8266C292.68 87.8756 292.849 88.9888 292.797 90.1028C292.745 91.2167 292.474 92.3096 292 93.3189C291.526 94.3282 290.858 95.2343 290.033 95.9854C289.209 96.7364 288.245 97.3178 287.196 97.6962C286.147 98.0746 285.034 98.2427 283.92 98.1909C282.771 98.2614 281.622 98.0699 280.558 97.6312C279.494 97.1924 278.544 96.5178 277.779 95.658C277.015 94.7983 276.455 93.776 276.144 92.6684C275.832 91.5608 275.776 90.3969 275.98 89.2645Z" fill="#0C3122"/>
<path d="M195 169.207C195 156.582 194.754 143.957 194.704 131.381C194.704 117.03 190.364 109.139 180.698 106.032C165.903 101.1 149.135 105.539 142.132 115.895C139.913 119.15 137.201 122.75 142.132 126.104C147.064 129.458 149.382 127.041 151.996 123.293C154.486 119.603 158.151 116.864 162.395 115.521C166.639 114.178 171.212 114.31 175.372 115.895C182.227 117.967 183.213 123.441 182.918 128.964C182.622 134.488 177.69 132.614 174.139 132.811C164.887 132.807 155.753 134.88 147.409 138.877C142.896 141.289 139.311 145.129 137.214 149.796C135.117 154.463 134.626 159.694 135.82 164.67C136.705 169.091 139.057 173.083 142.494 176.001C145.931 178.918 150.252 180.591 154.757 180.747C159.822 181.228 164.931 180.662 169.767 179.084C174.603 177.506 179.062 174.95 182.868 171.574C183.953 176.851 185.975 181.093 191.844 179.367C197.713 177.64 195 172.807 195 169.207ZM183.312 150.467C183.008 153.575 182.055 156.584 180.516 159.302C178.977 162.019 176.885 164.383 174.376 166.242C171.866 168.101 168.995 169.413 165.947 170.093C162.899 170.774 159.743 170.808 156.681 170.194C154.255 169.856 152.02 168.689 150.357 166.891C148.694 165.093 147.705 162.775 147.557 160.33C147.116 157.571 147.622 154.743 148.992 152.308C150.362 149.872 152.515 147.972 155.103 146.916C161.767 144.051 168.91 142.462 176.161 142.231C182.572 141.787 183.953 144.105 183.312 150.467Z" fill="#0C3122"/>
<path d="M338.02 109.533C317.159 109.78 304.435 124.822 304.78 148.987C305.174 171.919 318.885 186.912 339.302 186.468C359.719 186.024 372.147 170.44 372.197 147.36C372.246 124.279 358.634 109.336 338.02 109.533ZM335.702 175.717C334.775 175.654 333.853 175.539 332.94 175.372C322.337 172.906 316.074 160.872 316.912 144.499C317.652 130.394 324.803 121.123 335.899 119.84C350.694 118.164 359.867 129.161 359.67 147.754C359.473 166.347 350.596 177.049 335.702 175.717Z" fill="#0C3122"/>
</g>
<defs>
<clipPath id="clip0_869_36900">
<rect width="372" height="195.839" fill="white"/>
</clipPath>
</defs>
</svg>
