<svg width="172" height="91" viewBox="0 0 172 91" fill="none" xmlns="http://www.w3.org/2000/svg">
<g clip-path="url(#clip0_869_36891)">
<path d="M125.939 17.0107C122.039 19.975 119.668 24.1935 116.635 28.1383C115.7 23.213 115.7 18.47 118.687 14.2287C120.591 11.3891 123.052 8.96643 125.922 7.10829C128.791 5.25014 132.009 3.99537 135.379 3.42033C139.893 2.84577 144.339 1.8222 148.65 0.364793C151.158 -0.638521 152.412 0.547222 151.477 3.0099C150.141 7.35396 149.374 11.8534 149.197 16.395C148.669 20.4664 146.8 24.2458 143.885 27.1363C140.969 30.0269 137.174 31.8638 133.099 32.3568C128.196 33.1093 125.984 35.5948 123.977 39.9045C117.41 54.7034 114.264 70.4372 110.82 86.0798C110.25 88.702 109.885 90.6403 106.534 90.6403C103.182 90.6403 102.68 88.36 102.178 86.0798C99.3279 72.763 96.1127 59.5148 92.0767 46.4945C87.7478 31.3236 80.0021 17.3455 69.4336 5.63219C68.9906 4.99697 68.6017 4.32573 68.2708 3.62555C72.2121 4.4985 75.783 6.57895 78.4863 9.57706C86.9875 17.5832 93.4127 27.538 97.2073 38.582C100.901 48.2503 102.634 58.443 106.328 68.2253C112.006 50.2341 117.73 32.4252 129.336 17.2159C129.883 16.7142 130.362 16.0302 130.111 15.4145C129.861 14.7989 129.108 15.1637 128.629 15.4145C127.676 15.8452 126.774 16.3805 125.939 17.0107Z" fill="#0C3122"/>
<path d="M21.8905 62.0459C21.8905 67.5869 21.8905 73.128 21.8905 78.669C21.8905 80.6985 22.0045 82.9559 19.1085 83.0015C16.2126 83.0471 15.9846 80.7212 15.9846 78.441C15.9846 67.1993 15.8478 55.9576 15.9846 44.7388C15.9846 41.4324 14.9812 40.4974 11.8573 40.7255C5.88299 40.7255 5.883 40.7255 2.89586 40.7255C1.29968 40.7255 -0.0684464 40.1098 -0.0684464 38.4452C-0.112627 38.051 -0.0698319 37.6519 0.0569512 37.2759C0.183734 36.9 0.391428 36.5564 0.665359 36.2695C0.939291 35.9825 1.27282 35.7591 1.64244 35.6149C2.01207 35.4708 2.40881 35.4095 2.8047 35.4353C13.4459 35.4353 24.0871 35.4353 34.7283 35.4353C35.1244 35.3875 35.526 35.4276 35.9048 35.5528C36.2836 35.6779 36.6301 35.885 36.9197 36.1594C37.2093 36.4337 37.4348 36.7686 37.5802 37.14C37.7256 37.5115 37.7874 37.9104 37.7611 38.3084C37.7611 40.3378 36.1192 40.7939 34.4547 40.8167C31.1711 40.8167 27.9103 40.9307 24.6267 40.8167C22.3465 40.8167 21.6624 41.5236 21.708 43.7354C21.9816 49.8237 21.8905 55.9348 21.8905 62.0459Z" fill="#0C3122"/>
<path d="M44.1686 53.5177C45.4035 51.697 47.1322 50.2665 49.1518 49.394C51.1713 48.5216 53.3978 48.2435 55.5699 48.5924C57.2345 48.7976 58.6711 49.3904 58.4887 51.4427C58.3062 53.4949 57.2345 53.9966 55.3419 54.1106C47.1558 54.5211 44.123 57.759 43.9406 65.9679C43.9406 70.3688 43.9406 74.7697 43.9406 79.1707C43.9406 81.1545 43.667 83.0015 41.1131 83.0015C38.5592 83.0015 38.3996 81.0633 38.3996 79.2391C38.3996 70.7337 38.3996 62.2283 38.3996 53.7458C38.3996 51.9444 37.6699 49.3449 40.6798 49.0484C43.6898 48.752 43.8494 51.0779 44.1686 53.5177Z" fill="#0C3122"/>
<path d="M128.675 55.1599C128.675 53.2445 128.675 51.2834 131.366 51.2378C134.056 51.1922 134.444 53.1533 134.444 55.2967V81.6565C134.444 83.7543 133.805 85.3962 131.411 85.3962C129.017 85.3962 128.629 83.5035 128.629 81.5197C128.629 77.1188 128.629 72.7407 128.629 68.3398" fill="#0C3122"/>
<path d="M127.604 41.2728C127.558 40.7449 127.633 40.2135 127.825 39.7195C128.017 39.2254 128.319 38.7819 128.709 38.423C129.098 38.064 129.565 37.7993 130.073 37.649C130.581 37.4987 131.117 37.4668 131.64 37.556C132.155 37.5799 132.66 37.7051 133.127 37.9243C133.593 38.1436 134.012 38.4526 134.359 38.8337C134.707 39.2148 134.976 39.6606 135.15 40.1456C135.325 40.6306 135.403 41.1454 135.379 41.6604C135.355 42.1755 135.23 42.6808 135.011 43.1475C134.792 43.6141 134.483 44.0331 134.102 44.3803C133.72 44.7276 133.275 44.9964 132.79 45.1714C132.305 45.3463 131.79 45.424 131.275 45.4001C130.744 45.4327 130.212 45.3442 129.72 45.1413C129.229 44.9384 128.789 44.6265 128.436 44.229C128.082 43.8315 127.824 43.3588 127.679 42.8467C127.535 42.3346 127.509 41.7964 127.604 41.2728Z" fill="#0C3122"/>
<path d="M90.1614 78.2357C90.1614 72.3982 90.0474 66.5608 90.0246 60.7461C90.0246 54.1105 88.0179 50.4621 83.5486 49.0255C76.7078 46.7453 68.955 48.7975 65.717 53.5861C64.6909 55.091 63.4368 56.7556 65.717 58.3062C67.9973 59.8568 69.069 58.7394 70.2775 57.0064C71.429 55.3005 73.1235 54.0341 75.0858 53.4131C77.0481 52.7922 79.1627 52.8531 81.086 53.5861C84.2555 54.5438 84.7116 57.0748 84.5748 59.6287C84.4379 62.1826 82.1577 61.3161 80.5159 61.4073C76.2382 61.4053 72.0146 62.3638 68.1569 64.2121C66.0704 65.3272 64.4125 67.1027 63.4429 69.2607C62.4733 71.4186 62.2466 73.8373 62.7983 76.1379C63.2078 78.1818 64.2951 80.0276 65.8842 81.3767C67.4733 82.7258 69.4712 83.4991 71.5545 83.5715C73.896 83.7937 76.2582 83.5319 78.4942 82.8022C80.7302 82.0726 82.7922 80.8908 84.5519 79.3302C85.0536 81.7701 85.9885 83.7311 88.702 82.933C91.4155 82.1349 90.1614 79.9002 90.1614 78.2357ZM84.7571 69.5707C84.6164 71.0077 84.176 72.3993 83.4643 73.6557C82.7526 74.912 81.7855 76.0051 80.6252 76.8646C79.4649 77.724 78.1373 78.3307 76.7281 78.6454C75.3189 78.9601 73.8594 78.9759 72.4438 78.6917C71.3221 78.5358 70.289 77.9963 69.52 77.1649C68.751 76.3336 68.2935 75.2616 68.2253 74.1312C68.0213 72.8554 68.2551 71.548 68.8886 70.4219C69.522 69.2958 70.5178 68.4172 71.7141 67.9289C74.7956 66.6042 78.0983 65.8694 81.4508 65.7626C84.4151 65.5574 85.0536 66.6292 84.7571 69.5707Z" fill="#0C3122"/>
<path d="M156.289 50.6444C146.643 50.7585 140.76 57.7133 140.92 68.8865C141.102 79.4897 147.441 86.4217 156.882 86.2165C166.322 86.0113 172.068 78.8057 172.091 68.1341C172.114 57.4625 165.82 50.5532 156.289 50.6444ZM155.217 81.2456C154.789 81.2164 154.362 81.1631 153.94 81.0859C149.038 79.9458 146.142 74.3819 146.529 66.8115C146.871 60.2899 150.178 56.003 155.308 55.4102C162.149 54.6349 166.39 59.7199 166.299 68.3165C166.208 76.913 162.103 81.8612 155.217 81.2456Z" fill="#0C3122"/>
</g>
<defs>
<clipPath id="clip0_869_36891">
<rect width="172" height="90.5491" fill="white"/>
</clipPath>
</defs>
</svg>
